# xmcd
#
# Track frame offsets:
#	150
#	13519
#	34213
#	53142
#	73372
#	88432
#	100490
#	119386
#	131901
#	145100
#	161175
#	185921
#	200808
#	226922
#	239829
#	250359
#
# Disc length: 3525 seconds
# Revision: 0
# Processed by: cddbd v1.5.2PL0 Copyright (c) Steve Scherf et al.
# Submitted via: dBpowerAMP V12.0
#
DISCID=040dc310
DTITLE=Mississippi John Hurt - Worried Blues
DYEAR=2017
DGENRE=Blues
TTITLE0=Slidin' Delta
TTITLE1=Louis Collins
TTITLE2=Staggerlee
TTITLE3=Monday Mornin' Blues
TTITLE4=Comin' Home
TTITLE5=A Hot Time In The Old Town Tonight
TTITLE6=Make Me A Pallet On Your Floor
TTITLE7=You Can't Come In
TTITLE8=Joe Turner
TTITLE9=Lonesome Am I
TTITLE10=Trouble Blues
TTITLE11=Lovin' Spoonful
TTITLE12=Richland Woman Blues
TTITLE13=Nobody's Dirty Business
TTITLE14=Worried Blues
TTITLE15=Avalon Blues
EXTD=
EXTT0=
EXTT1=
EXTT2=
EXTT3=
EXTT4=
EXTT5=
EXTT6=
EXTT7=
EXTT8=
EXTT9=
EXTT10=
EXTT11=
EXTT12=
EXTT13=
EXTT14=
EXTT15=
PLAYORDER=
